<svg width="46" height="45" viewBox="0 0 46 45" fill="none" xmlns="http://www.w3.org/2000/svg">
<path d="M18.8621 2.53493C20.6549 -0.729617 25.3451 -0.729617 27.1379 2.53493V2.53493C28.2775 4.61014 30.778 5.52024 32.9849 4.66307V4.66307C36.4566 3.31465 40.0496 6.32947 39.3245 9.98262V9.98262C38.8636 12.3049 40.1941 14.6093 42.4356 15.3713V15.3713C45.9619 16.5699 46.7763 21.1889 43.8727 23.5213V23.5213C42.0269 25.0039 41.5648 27.6245 42.7922 29.649V29.649C44.723 32.8339 42.3779 36.8957 38.6543 36.816V36.816C36.2873 36.7654 34.2489 38.4758 33.8878 40.8156V40.8156C33.3197 44.4965 28.9123 46.1006 26.1111 43.6461V43.6461C24.3305 42.0858 21.6695 42.0858 19.8889 43.6461V43.6461C17.0877 46.1006 12.6803 44.4965 12.1122 40.8156V40.8156C11.7511 38.4758 9.71266 36.7654 7.34566 36.816V36.816C3.62211 36.8957 1.27699 32.8339 3.20779 29.649V29.649C4.43517 27.6245 3.97309 25.0039 2.12731 23.5213V23.5213C-0.776337 21.1889 0.0381142 16.5699 3.56437 15.3713V15.3713C5.80595 14.6093 7.13643 12.3049 6.67551 9.98262V9.98262C5.95043 6.32947 9.54336 3.31465 13.0151 4.66307V4.66307C15.222 5.52024 17.7225 4.61014 18.8621 2.53493V2.53493Z" fill="#CD5C5C"/>
</svg>
